<svg width="1024" height="1024" viewBox="0 0 1024 1024" fill="none" xmlns="http://www.w3.org/2000/svg">
<rect width="1024" height="1024" fill="white"/>
<path d="M254.157 775.076C233.987 775.076 217.599 770.542 204.993 761.474C192.387 752.407 184.723 739.662 182 723.239L219.213 717.496C221.129 725.557 225.365 731.904 231.92 736.538C238.475 741.173 246.744 743.49 256.728 743.49C265.502 743.49 272.259 741.777 276.999 738.352C281.839 734.826 284.26 730.04 284.26 723.995C284.26 720.267 283.352 717.295 281.537 715.078C279.822 712.761 275.99 710.545 270.04 708.429C264.09 706.313 254.963 703.643 242.66 700.419C228.945 696.792 218.053 692.913 209.985 688.782C201.917 684.551 196.119 679.564 192.589 673.821C189.059 668.078 187.295 661.126 187.295 652.966C187.295 642.79 189.967 633.924 195.312 626.367C200.657 618.811 208.12 613.018 217.7 608.988C227.281 604.857 238.576 602.792 251.585 602.792C264.292 602.792 275.536 604.756 285.318 608.686C295.202 612.615 303.168 618.207 309.219 625.461C315.27 632.715 319.002 641.228 320.413 651.001L283.201 657.65C282.293 650.699 279.116 645.208 273.671 641.178C268.326 637.148 261.165 634.881 252.19 634.377C243.618 633.873 236.71 635.183 231.466 638.306C226.222 641.329 223.6 645.611 223.6 651.152C223.6 654.275 224.659 656.945 226.776 659.162C228.894 661.378 233.13 663.595 239.483 665.811C245.937 668.028 255.518 670.748 268.225 673.972C281.234 677.297 291.621 681.125 299.387 685.458C307.253 689.689 312.9 694.777 316.329 700.721C319.859 706.666 321.624 713.869 321.624 722.332C321.624 738.755 315.623 751.651 303.622 761.021C291.722 770.391 275.234 775.076 254.157 775.076Z" fill="#6A6A6A"/>
<path d="M419.652 775.076C402.811 775.076 388.44 771.348 376.54 763.892C364.64 756.336 355.513 746.059 349.16 733.062C342.907 720.066 339.73 705.356 339.63 688.934C339.73 672.209 343.008 657.399 349.462 644.502C356.017 631.506 365.295 621.33 377.296 613.975C389.297 606.519 403.567 602.792 420.106 602.792C438.662 602.792 454.344 607.477 467.152 616.846C480.06 626.115 488.481 638.81 492.414 654.93L456.109 664.753C453.285 655.988 448.596 649.187 442.04 644.351C435.485 639.415 428.023 636.946 419.652 636.946C410.173 636.946 402.357 639.213 396.205 643.747C390.053 648.18 385.515 654.326 382.591 662.184C379.666 670.043 378.204 678.959 378.204 688.934C378.204 704.449 381.683 716.993 388.642 726.564C395.6 736.135 405.937 740.921 419.652 740.921C429.334 740.921 436.948 738.704 442.494 734.271C448.142 729.838 452.377 723.441 455.201 715.078L492.414 723.39C487.371 740.014 478.547 752.81 465.941 761.776C453.335 770.642 437.906 775.076 419.652 775.076Z" fill="#6A6A6A"/>
<path d="M559.701 775.076C547.902 775.076 537.918 772.859 529.75 768.426C521.581 763.892 515.379 757.898 511.143 750.442C507.008 742.986 504.941 734.775 504.941 725.808C504.941 717.95 506.252 710.897 508.874 704.651C511.496 698.303 515.53 692.863 520.976 688.329C526.422 683.695 533.481 679.916 542.154 676.995C548.709 674.879 556.373 672.965 565.147 671.252C574.022 669.539 583.602 667.977 593.889 666.567C604.276 665.056 615.117 663.444 626.412 661.731L613.403 669.136C613.504 657.852 610.982 649.54 605.839 644.2C600.696 638.86 592.023 636.191 579.82 636.191C572.459 636.191 565.349 637.903 558.491 641.329C551.634 644.754 546.843 650.648 544.12 659.011L510.841 648.583C514.875 634.78 522.539 623.697 533.834 615.335C545.23 606.973 560.559 602.792 579.82 602.792C594.342 602.792 607.1 605.159 618.092 609.895C629.185 614.63 637.404 622.388 642.749 633.168C645.674 638.911 647.439 644.805 648.044 650.85C648.649 656.794 648.952 663.293 648.952 670.345V770.542H617.033V735.178L622.328 740.921C614.966 752.709 606.343 761.373 596.46 766.915C586.678 772.355 574.425 775.076 559.701 775.076ZM566.962 746.059C575.232 746.059 582.291 744.598 588.14 741.677C593.99 738.755 598.629 735.178 602.057 730.947C605.587 726.715 607.957 722.735 609.167 719.008C611.083 714.373 612.142 709.084 612.344 703.139C612.646 697.094 612.798 692.208 612.798 688.48L623.992 691.805C612.999 693.518 603.57 695.029 595.704 696.339C587.838 697.649 581.081 698.908 575.434 700.117C569.786 701.225 564.794 702.485 560.458 703.895C556.222 705.406 552.642 707.169 549.717 709.185C546.793 711.2 544.524 713.517 542.91 716.136C541.397 718.756 540.641 721.829 540.641 725.355C540.641 729.385 541.65 732.962 543.667 736.085C545.683 739.107 548.608 741.526 552.44 743.339C556.373 745.153 561.214 746.059 566.962 746.059Z" fill="#6A6A6A"/>
<path d="M685.309 770.542V548.386H721.765V770.542H685.309Z" fill="#6A6A6A"/>
<path d="M761.027 770.542V607.325H793.248V647.072L789.315 641.933C791.332 636.493 794.004 631.556 797.332 627.123C800.761 622.589 804.845 618.861 809.585 615.94C813.619 613.219 818.057 611.104 822.897 609.592C827.839 607.98 832.881 607.023 838.024 606.721C843.168 606.318 848.16 606.519 853 607.325V641.329C848.16 639.918 842.562 639.465 836.209 639.969C829.956 640.472 824.309 642.236 819.267 645.258C814.224 647.978 810.09 651.454 806.862 655.686C803.736 659.917 801.417 664.753 799.904 670.194C798.391 675.534 797.635 681.327 797.635 687.573V770.542H761.027Z" fill="#6A6A6A"/>
<path d="M367 268.328C367 256.473 374.677 245.984 385.976 242.399L506.133 204.274C511.572 202.548 517.417 202.576 522.839 204.355L638.439 242.278C649.61 245.942 657.162 256.368 657.162 268.125V280.195C657.162 291.951 649.61 302.378 638.439 306.042L522.839 343.965C517.417 345.743 511.572 345.772 506.133 344.046L385.976 305.921C374.677 302.336 367 291.846 367 279.992V268.328Z" fill="#B3DBF1"/>
<path d="M367 353.752C367 336.899 383.509 324.997 399.499 330.323L505.757 365.716C511.427 367.604 517.561 367.573 523.211 365.627L624.54 330.732C640.519 325.229 657.162 337.1 657.162 354V354C657.162 364.596 650.38 374.002 640.327 377.349L522.951 416.427C517.46 418.255 511.529 418.285 506.02 416.511L384.126 377.259C373.919 373.972 367 364.475 367 353.752V353.752Z" fill="#D21212"/>
<path d="M367 426.293C367 409.439 383.509 397.537 399.499 402.863L505.757 438.256C511.427 440.145 517.561 440.114 523.211 438.168L624.54 403.273C640.519 397.77 657.162 409.641 657.162 426.541V426.541C657.162 437.137 650.38 446.543 640.327 449.89L522.951 488.968C517.46 490.796 511.529 490.825 506.02 489.051L384.126 449.8C373.919 446.513 367 437.016 367 426.293V426.293Z" fill="#6A6A6A"/>
</svg>
